<?xml version="1.0" standalone="no"?>
<!DOCTYPE svg PUBLIC "-//W3C//DTD SVG 20010904//EN"
 "http://www.w3.org/TR/2001/REC-SVG-20010904/DTD/svg10.dtd">
<svg version="1.0" xmlns="http://www.w3.org/2000/svg"
 width="192.000000pt" height="262.000000pt" viewBox="0 0 192.000000 262.000000"
 preserveAspectRatio="xMidYMid meet">
<metadata>
Created by potrace 1.15, written by Peter Selinger 2001-2017
</metadata>
<g transform="translate(0.000000,262.000000) scale(0.100000,-0.100000)"
fill="#000000" stroke="none">
<path d="M1061 2545 c-43 -41 -98 -102 -122 -135 -24 -33 -47 -60 -52 -60 -5
0 -21 8 -35 19 -84 59 -243 119 -260 98 -41 -51 -102 -236 -102 -309 0 -26 -3
-28 -42 -28 -99 0 -304 -48 -314 -73 -7 -20 41 -197 75 -271 17 -38 30 -70 29
-72 -2 -1 -37 -25 -78 -52 -41 -28 -95 -71 -120 -96 l-44 -46 48 -49 c26 -27
77 -66 112 -86 35 -21 64 -42 64 -47 0 -5 -14 -36 -30 -69 -30 -59 -66 -176
-57 -185 12 -12 119 -35 190 -41 l77 -6 1 -36 c0 -20 8 -65 17 -101 l17 -65
50 3 c28 1 79 11 114 23 73 23 81 19 81 -43 0 -34 -3 -38 -26 -38 -36 0 -94
-59 -94 -96 0 -16 8 -42 18 -59 l18 -30 -71 -105 c-83 -121 -121 -188 -164
-282 -43 -97 -14 -90 32 7 51 106 107 200 177 294 50 68 65 81 88 81 15 0 38
7 50 16 21 14 22 14 22 -6 0 -50 51 -100 101 -100 30 0 77 27 84 49 5 17 9 15
39 -15 26 -26 42 -34 70 -34 36 0 77 28 87 58 3 9 15 7 44 -8 23 -12 48 -17
60 -14 27 8 65 44 65 62 0 17 21 11 31 -9 4 -8 14 -43 22 -78 l14 -63 -72 -47
c-40 -26 -103 -57 -141 -69 -70 -23 -210 -46 -223 -38 -4 3 -28 6 -54 7 -26 2
-47 5 -47 8 0 3 14 20 32 38 31 32 33 51 4 40 -21 -8 -103 -116 -144 -188
l-34 -60 159 3 158 3 -4 -54 c-3 -52 -2 -53 20 -48 32 8 320 9 438 1 84 -5 93
-4 82 10 -7 8 -10 19 -8 23 3 5 -1 16 -8 26 -13 18 -14 18 -25 0 -10 -16 -11
-15 -6 7 8 36 -14 82 -37 76 -11 -3 -16 0 -14 7 3 7 10 11 16 9 6 -1 11 3 11
9 0 11 -38 79 -50 89 -3 3 -5 17 -5 32 1 15 -4 26 -10 25 -5 -1 -9 11 -7 26 3
26 1 28 -20 21 -20 -6 -21 -5 -9 10 19 22 41 20 41 -4 0 -21 107 -270 141
-328 10 -18 19 -37 19 -43 0 -5 -113 -9 -285 -9 -221 0 -285 -3 -285 -12 0
-10 72 -14 315 -17 173 -2 315 -1 315 1 0 2 -35 73 -78 158 -42 85 -86 182
-96 215 -12 36 -31 70 -48 86 -19 17 -31 41 -37 73 -9 46 -8 47 24 60 36 15
61 68 49 102 -13 35 -47 64 -76 64 -25 0 -28 3 -28 33 0 38 29 89 64 112 13 9
29 28 35 43 10 22 26 31 88 51 85 27 192 94 266 167 68 67 65 89 -18 170 -36
35 -65 68 -65 74 0 6 13 31 29 54 33 48 56 123 49 160 -4 20 1 27 24 37 49 20
77 59 43 59 -8 0 -15 -4 -15 -10 0 -12 -55 -41 -64 -33 -14 14 -4 36 41 91 45
55 106 169 118 224 6 24 2 28 -57 56 -34 17 -91 39 -125 49 l-63 18 8 35 c4
19 7 89 7 155 l0 120 -65 -2 c-54 -1 -131 -19 -250 -59 -10 -3 -24 13 -44 51
-28 54 -158 205 -177 205 -5 0 -44 -34 -88 -75z m147 -12 c45 -53 126 -169
134 -195 2 -6 30 -1 75 15 102 37 234 61 245 45 12 -20 9 -157 -6 -228 -8 -36
-11 -68 -8 -71 4 -3 34 -13 67 -23 84 -25 175 -67 175 -80 0 -39 -137 -266
-161 -266 -16 0 -10 15 21 56 29 38 38 64 22 64 -5 0 -23 -20 -42 -45 -19 -25
-35 -45 -37 -45 -2 0 -14 7 -27 15 -20 14 -23 22 -19 60 6 47 -4 102 -15 90
-4 -4 -7 -29 -7 -55 0 -27 -5 -53 -10 -58 -6 -4 -35 -6 -66 -4 -56 4 -57 4
-69 43 -13 39 -36 67 -46 56 -3 -3 4 -24 15 -48 12 -23 21 -46 21 -51 0 -4
-19 -17 -42 -29 -24 -12 -59 -40 -79 -61 l-35 -39 -52 33 c-45 29 -51 36 -46
60 7 36 -6 98 -20 98 -9 0 -11 -17 -8 -58 l4 -57 -81 0 c-60 0 -81 3 -81 13 0
20 -39 92 -50 92 -15 0 -12 -17 10 -60 11 -22 20 -43 20 -47 0 -4 -21 -19 -46
-32 -25 -14 -57 -40 -71 -58 -14 -18 -29 -33 -34 -33 -5 0 -27 16 -49 36 -22
20 -43 34 -46 31 -12 -12 6 -37 46 -64 30 -21 39 -33 34 -48 -19 -70 -25 -103
-20 -129 6 -28 5 -28 -32 -21 -20 3 -41 11 -46 16 -13 12 -36 12 -36 -1 0 -15
56 -40 89 -40 25 0 34 -7 50 -38 46 -90 138 -137 253 -130 105 7 187 57 229
140 14 28 26 38 43 38 13 0 43 7 66 15 49 17 103 19 130 5 25 -13 35 -64 20
-101 -8 -18 -31 -40 -59 -56 -25 -15 -48 -28 -50 -29 -1 -2 0 -7 4 -13 9 -15
77 21 108 58 14 17 28 44 32 61 4 16 11 31 16 32 5 0 12 1 17 2 4 1 38 -32 76
-71 62 -65 68 -75 59 -96 -14 -29 -132 -125 -204 -166 -127 -71 -368 -105
-554 -79 -44 6 -82 13 -84 14 -2 2 2 10 8 18 7 8 10 20 6 26 -15 25 -65 -48
-65 -95 0 -31 17 -33 22 -2 2 18 9 22 33 20 141 -11 349 -14 393 -5 28 5 52 8
52 6 0 -2 -20 -24 -45 -49 -44 -45 -65 -93 -65 -148 0 -32 -35 -84 -45 -67 -8
13 -71 13 -95 0 -28 -15 -44 -49 -45 -99 -4 -97 -116 -126 -160 -41 -19 36
-19 34 0 70 27 53 82 66 129 29 14 -11 26 -16 26 -10 0 15 -54 41 -84 41 -14
0 -41 -14 -61 -31 -24 -22 -35 -26 -35 -16 0 23 -58 67 -89 67 -15 0 -36 -7
-47 -15 -24 -18 -34 -19 -34 -1 0 8 -11 27 -24 43 -20 24 -24 42 -28 133 -3
62 -12 121 -22 143 -15 36 -18 38 -46 32 -90 -20 -146 81 -81 146 31 31 67 37
103 18 27 -14 38 -1 14 17 -11 8 -39 14 -62 14 -34 0 -49 -6 -73 -31 -42 -41
-44 -112 -5 -158 22 -27 32 -31 74 -31 52 0 53 0 65 -71 l7 -37 -64 -21 c-34
-11 -84 -24 -109 -27 l-47 -6 -10 48 c-6 27 -14 72 -17 100 l-7 51 -77 7 c-92
9 -169 24 -176 37 -11 17 40 154 92 250 2 4 -22 19 -53 34 -31 15 -83 53 -117
84 l-60 57 69 56 c38 31 93 70 122 88 28 17 52 35 52 39 0 5 -16 42 -34 83
-34 73 -76 206 -76 240 0 24 114 57 249 71 l106 12 3 35 c5 78 26 159 57 228
19 39 36 72 39 72 3 0 36 -11 72 -25 59 -22 112 -51 191 -102 20 -13 23 -11
54 34 35 51 207 233 219 233 5 0 30 -26 58 -57z m430 -772 c68 -35 95 -73 100
-140 5 -72 -20 -133 -74 -181 l-35 -30 -35 36 c-18 20 -34 42 -34 49 0 18 -27
38 -40 30 -6 -4 -15 -16 -19 -27 -5 -14 -27 -27 -67 -39 -32 -10 -62 -19 -65
-19 -3 0 -3 27 -1 60 3 42 -1 74 -13 105 -19 52 -15 72 23 108 69 66 184 87
260 48z m-392 -66 c152 -95 124 -317 -51 -408 -53 -27 -163 -29 -217 -3 -176
85 -166 336 17 423 42 20 63 23 126 21 64 -3 83 -8 125 -33z m-531 -960 c16
-15 25 -36 25 -55 0 -19 -9 -40 -25 -55 -15 -16 -36 -25 -55 -25 -19 0 -40 9
-55 25 -50 49 -15 135 55 135 19 0 40 -9 55 -25z m154 -49 c30 -16 51 -53 51
-92 0 -34 -51 -84 -85 -84 -86 0 -126 116 -58 170 30 24 54 25 92 6z m371 4
c22 -12 36 -81 21 -108 -13 -25 -60 -42 -87 -31 -29 10 -54 47 -54 78 0 54 69
89 120 61z m130 -302 c0 -5 -7 -8 -15 -8 -8 0 -15 -5 -15 -11 0 -6 -7 -9 -15
-5 -8 3 -15 1 -15 -5 0 -6 -7 -9 -14 -6 -9 4 -17 -2 -21 -14 -4 -10 -10 -17
-15 -14 -5 3 -13 -2 -17 -10 -8 -14 -23 -20 -73 -30 -61 -12 -80 -19 -70 -25
8 -5 7 -9 -4 -13 -9 -4 -16 -3 -16 2 0 9 -85 9 -95 -1 -4 -4 -17 -3 -30 2 -13
5 -26 6 -29 3 -11 -11 -81 -10 -88 1 -6 7 -11 6 -18 -4 -8 -13 -10 -13 -10 -1
0 18 -43 -26 -46 -47 -4 -27 -14 -43 -23 -38 -5 4 -11 0 -14 -6 -2 -7 -7 -10
-10 -7 -4 3 9 32 29 65 l35 59 137 0 c119 0 147 3 212 25 41 13 81 24 88 23 7
0 11 1 8 4 -9 10 98 70 121 69 13 -1 23 -4 23 -8z"/>
</g>
</svg>
