<?xml version="1.0" standalone="no"?>
<!DOCTYPE svg PUBLIC "-//W3C//DTD SVG 20010904//EN"
 "http://www.w3.org/TR/2001/REC-SVG-20010904/DTD/svg10.dtd">
<svg version="1.0" xmlns="http://www.w3.org/2000/svg"
 width="201.000000pt" height="251.000000pt" viewBox="0 0 201.000000 251.000000"
 preserveAspectRatio="xMidYMid meet">
<metadata>
Created by potrace 1.15, written by Peter Selinger 2001-2017
</metadata>
<g transform="translate(0.000000,251.000000) scale(0.100000,-0.100000)"
fill="#000000" stroke="none">
<path d="M1059 2345 l-22 -36 -15 30 c-19 40 -35 39 -58 -4 l-18 -35 -32 31
-32 31 -16 -23 c-9 -13 -16 -29 -16 -36 0 -19 -8 -16 -34 14 -27 31 -41 25
-50 -22 l-7 -35 -29 15 c-41 21 -53 19 -47 -7 25 -109 41 -215 62 -406 24
-221 24 -223 5 -242 -27 -27 -27 -86 0 -102 18 -11 20 -24 20 -109 0 -94 -1
-97 -24 -103 -14 -3 -42 2 -68 14 -43 20 -108 26 -122 13 -4 -5 -47 -8 -94 -8
-149 -1 -232 -55 -232 -151 0 -31 7 -45 45 -81 25 -24 53 -43 61 -43 11 0 14
-5 9 -17 -3 -10 -16 -51 -28 -91 l-21 -72 -61 0 c-79 0 -119 -24 -136 -80 -29
-95 60 -166 172 -137 26 7 26 5 33 -55 3 -33 6 -114 6 -179 l0 -119 -50 0
c-65 0 -103 -20 -125 -66 -14 -31 -15 -43 -6 -75 18 -59 54 -82 121 -76 30 3
64 6 74 8 16 3 21 -4 28 -36 5 -22 14 -44 20 -50 7 -7 9 -2 3 20 -37 156 -56
374 -58 683 -2 188 0 212 19 262 16 42 26 56 44 58 37 6 45 -12 26 -58 -9 -22
-16 -53 -15 -68 1 -21 3 -18 14 18 36 128 56 129 50 2 -2 -62 -1 -80 6 -62 5
14 22 31 39 37 29 11 30 11 15 -10 -10 -14 -15 -45 -15 -87 0 -85 26 -430 45
-595 8 -72 16 -147 17 -167 2 -21 6 -38 11 -38 9 0 10 -11 -13 180 -20 170
-50 553 -50 637 0 49 17 90 27 66 7 -18 48 -16 63 1 6 8 17 13 24 10 22 -8 49
34 54 86 6 63 22 76 22 18 0 -29 -11 -65 -35 -113 -25 -50 -37 -89 -41 -135
-7 -75 -2 -90 59 -183 16 -24 17 -34 8 -78 -18 -82 -17 -84 47 -103 57 -18 58
-18 70 -68 14 -61 50 -110 102 -140 34 -20 38 -26 33 -51 -3 -15 -14 -45 -24
-65 -24 -45 -24 -60 -1 -58 9 0 19 12 22 25 6 30 30 40 30 14 0 -11 -6 -25
-12 -32 -11 -11 -10 -13 2 -9 8 3 16 19 18 38 3 30 2 32 -22 28 -21 -4 -24 -3
-15 8 9 11 16 11 41 -2 44 -23 116 -27 170 -11 l48 15 24 -29 c13 -15 26 -34
28 -40 2 -7 9 -10 16 -8 7 2 -4 24 -28 57 -31 40 -37 54 -26 58 8 3 23 26 32
50 15 38 15 51 4 87 -6 23 -17 48 -22 54 -13 16 10 26 44 21 63 -9 96 -196 51
-287 -11 -22 -16 -41 -11 -41 21 0 42 77 42 155 1 62 -4 91 -21 128 -17 37
-19 47 -8 47 24 0 56 -77 62 -148 4 -51 1 -81 -14 -124 -21 -60 -16 -79 7 -31
34 74 18 255 -28 296 -20 19 -78 24 -130 12 -33 -7 -33 -7 -30 27 3 28 8 34
33 38 29 5 30 7 38 84 5 44 16 90 24 102 14 22 16 22 38 8 29 -19 65 -10 65
15 0 10 11 23 25 29 15 7 25 20 25 32 0 12 -10 25 -25 32 -21 9 -25 18 -25 53
0 33 6 47 31 71 58 55 89 150 68 211 -14 42 -73 87 -145 109 -35 12 -56 25
-63 40 -11 26 -79 49 -115 40 -15 -4 -30 3 -49 23 -33 36 -34 44 -2 65 14 9
25 22 25 30 0 9 24 15 88 19 103 7 175 30 201 63 15 20 17 31 10 62 -14 59
-10 193 6 239 13 38 13 48 0 87 -9 25 -12 57 -9 75 4 20 2 37 -7 48 -11 12
-14 60 -13 215 0 109 -3 198 -6 198 -4 0 -13 -7 -20 -15 -16 -19 -30 -19 -30
-1 0 7 -6 19 -14 25 -12 10 -18 7 -32 -14 l-17 -27 -14 26 c-16 31 -39 34 -48
6 -9 -27 -19 -25 -33 5 -15 33 -26 32 -50 -6 l-20 -32 -13 28 c-20 41 -36 41
-60 0z m58 -22 l15 -38 19 38 c11 20 23 37 28 37 5 0 16 -17 24 -37 l15 -38
17 40 c18 42 15 43 53 -12 8 -11 15 -14 18 -7 2 6 11 20 19 30 13 18 14 17 21
-13 7 -38 19 -42 34 -13 6 11 14 20 18 20 4 0 7 -87 7 -193 0 -147 3 -198 13
-210 8 -9 11 -25 8 -35 -6 -19 -7 -19 -43 -1 -48 24 -89 24 -135 -1 l-37 -20
-37 25 c-71 48 -188 24 -233 -48 -79 -127 78 -279 216 -209 22 12 43 28 46 37
5 11 21 15 57 15 66 0 90 -13 90 -49 0 -40 -23 -55 -83 -54 -39 1 -46 -2 -33
-9 41 -23 136 11 136 48 0 7 8 18 19 23 17 9 19 4 26 -72 16 -158 18 -148 -50
-176 -53 -22 -75 -25 -185 -25 -98 1 -137 5 -180 20 -34 12 -54 25 -52 33 1 7
-3 11 -9 9 -17 -6 -30 -46 -19 -53 6 -4 10 1 10 9 0 14 4 14 38 1 20 -9 66
-21 102 -28 l65 -14 -28 -25 c-15 -14 -27 -34 -27 -45 0 -37 -27 -48 -114 -48
-66 0 -90 5 -131 25 l-50 25 4 105 c3 82 7 107 20 117 14 11 12 12 -15 13 -37
0 -54 16 -54 52 0 34 39 63 71 53 14 -5 19 -4 15 4 -4 6 -15 11 -25 11 -16 0
-20 12 -26 78 -14 159 -55 459 -69 505 -15 51 -7 60 30 32 29 -22 33 -19 40
25 8 47 15 49 42 13 22 -30 38 -25 47 17 8 38 22 38 55 -2 l27 -32 17 31 c23
45 33 48 51 13 20 -39 28 -38 48 5 21 45 34 44 54 -2z m26 -427 c46 -19 65
-40 78 -88 9 -33 8 -49 -6 -84 -32 -84 -122 -116 -204 -72 -106 57 -105 190 2
239 50 22 86 24 130 5z m247 -24 c56 -42 68 -129 24 -181 -30 -36 -44 -38 -69
-11 -13 15 -31 20 -65 20 l-46 0 0 63 c0 34 -2 71 -5 82 -3 15 5 25 31 38 41
21 92 17 130 -11z m-840 -573 c36 -11 38 -14 43 -63 3 -28 3 -53 2 -55 -7 -7
-105 31 -130 51 -14 11 -28 18 -31 15 -9 -9 55 -48 113 -68 69 -23 100 -50
113 -98 20 -72 4 -171 -27 -171 -11 0 -13 7 -8 30 4 19 3 30 -4 30 -6 0 -11
-10 -11 -23 0 -28 -26 -67 -46 -67 -10 0 -14 14 -14 53 l-1 52 -20 -37 c-13
-25 -26 -38 -40 -38 -18 0 -20 5 -18 43 3 49 -22 147 -29 110 -5 -30 -32 -30
-97 1 -92 42 -129 117 -89 175 28 40 110 71 188 71 38 0 86 -5 106 -11z m568
-76 c6 -16 19 -68 28 -118 17 -87 19 -92 74 -151 31 -33 66 -82 78 -107 29
-61 46 -137 33 -150 -14 -14 -31 1 -31 28 0 50 -42 136 -94 193 -67 72 -72 82
-81 166 -4 38 -13 90 -21 115 -16 55 -16 51 -5 51 5 0 13 -12 19 -27z m290
-117 c96 -50 96 -174 1 -278 -30 -32 -34 -42 -31 -81 3 -36 9 -47 29 -56 39
-18 22 -36 -31 -34 -52 1 -58 -3 -21 -17 26 -10 33 -34 15 -45 -16 -10 -60 23
-60 44 0 10 9 26 21 37 18 16 20 26 15 69 -3 28 -18 76 -34 108 l-29 57 23 26
24 25 -26 11 c-17 8 -23 16 -18 27 4 9 9 46 12 83 l4 66 38 -13 c21 -7 51 -20
68 -29z m-1151 -306 c25 -87 -11 -150 -76 -135 -17 4 -40 18 -51 32 -53 68 9
175 90 153 18 -5 28 -17 37 -50z m1032 -180 c-24 -66 -152 -150 -230 -150 -25
0 -28 -4 -31 -37 -3 -33 -7 -38 -38 -46 -43 -11 -201 -2 -252 14 -42 14 -46
28 -28 103 7 33 5 43 -13 67 -11 16 -18 31 -15 35 3 3 27 -2 52 -10 157 -53
360 -42 507 27 30 14 55 26 56 26 1 1 -3 -12 -8 -29z m-289 -265 c0 -23 47
-55 100 -66 30 -7 61 -19 68 -28 17 -20 15 -62 -4 -89 -13 -19 -24 -22 -82
-22 -112 0 -183 31 -229 99 -23 34 -46 99 -38 110 7 12 185 8 185 -4z m-725
-114 c13 -30 16 -52 11 -85 -8 -52 -31 -71 -76 -61 -43 9 -65 40 -65 90 0 55
34 95 80 95 27 0 34 -6 50 -39z"/>
</g>
</svg>
